<svg width="1440" height="151" viewBox="0 0 1440 151" fill="none" xmlns="http://www.w3.org/2000/svg">
<g clip-path="url(#clip0_19412_3004)">
<path d="M-0.166504 123.563C28.6825 113.386 57.7345 103.818 86.9897 94.8757C116.24 85.9277 145.672 77.5996 175.276 69.9017C204.886 62.2038 234.641 55.1361 264.547 48.6986C294.453 42.2611 324.485 36.459 354.636 31.2975C384.787 26.1309 415.037 21.61 445.38 17.7298C475.724 13.8444 506.136 10.61 536.62 8.02148C567.099 5.42773 597.62 3.48503 628.182 2.18815C658.75 0.891276 689.328 0.240234 719.917 0.240234C750.511 0.240234 781.089 0.891276 811.651 2.18815C842.214 3.48503 872.735 5.42773 903.219 8.02148C933.698 10.61 964.11 13.8444 994.458 17.7298C1024.8 21.61 1055.05 26.1309 1085.2 31.2975C1115.35 36.459 1145.38 42.2611 1175.29 48.6986C1205.19 55.1361 1234.95 62.2038 1264.56 69.9017C1294.17 77.5996 1323.59 85.9277 1352.85 94.8757C1382.1 103.818 1411.15 113.386 1440 123.563V398.136C1425.71 392.48 1411.36 386.995 1396.95 381.678C1382.54 376.365 1368.06 371.219 1353.53 366.24C1338.99 361.266 1324.4 356.464 1309.75 351.829C1295.1 347.199 1280.4 342.74 1265.65 338.454C1250.89 334.173 1236.09 330.058 1221.24 326.12C1206.39 322.188 1191.49 318.423 1176.55 314.839C1161.61 311.251 1146.64 307.844 1131.61 304.61C1116.59 301.381 1101.54 298.324 1086.45 295.443C1071.35 292.568 1056.23 289.865 1041.08 287.344C1025.92 284.824 1010.74 282.48 995.531 280.313C980.318 278.152 965.083 276.167 949.828 274.36C934.573 272.558 919.297 270.928 904 269.485C888.703 268.037 873.396 266.771 858.068 265.688C842.745 264.605 827.406 263.699 812.063 262.975C796.714 262.251 781.36 261.709 766 261.35C750.641 260.985 735.281 260.808 719.917 260.808C704.552 260.808 689.193 260.985 673.833 261.35C658.474 261.709 643.12 262.251 627.776 262.975C612.427 263.699 597.094 264.605 581.766 265.688C566.443 266.777 551.13 268.037 535.833 269.485C520.542 270.928 505.266 272.558 490.005 274.36C474.75 276.167 459.516 278.152 444.307 280.313C429.094 282.48 413.912 284.824 398.755 287.344C383.604 289.865 368.479 292.568 353.386 295.443C338.297 298.324 323.24 301.381 308.219 304.61C293.198 307.844 278.219 311.256 263.281 314.839C248.344 318.423 233.448 322.188 218.599 326.12C203.745 330.058 188.943 334.173 174.193 338.454C159.438 342.74 144.735 347.199 130.089 351.829C115.438 356.464 100.844 361.266 86.3075 366.24C71.7762 371.219 57.297 376.365 42.8856 381.678C28.4689 386.995 14.12 392.48 -0.166504 398.136V123.563Z" fill="white"/>
</g>
<defs>
<clipPath id="clip0_19412_3004">
<rect width="1440" height="151" fill="white"/>
</clipPath>
</defs>
</svg>
