<svg width="1441" height="398" viewBox="0 0 1441 398" fill="none" xmlns="http://www.w3.org/2000/svg">
<path d="M0 123.323C28.849 113.146 57.901 103.578 87.1563 94.6354C116.406 85.6875 145.839 77.3594 175.443 69.6615C205.052 61.9635 234.807 54.8958 264.714 48.4583C294.62 42.0208 324.651 36.2188 354.802 31.0573C384.953 25.8906 415.203 21.3698 445.547 17.4896C475.891 13.6042 506.302 10.3698 536.786 7.78125C567.266 5.1875 597.786 3.24479 628.349 1.94792C658.917 0.651042 689.495 0 720.083 0C750.677 0 781.255 0.651042 811.818 1.94792C842.38 3.24479 872.901 5.1875 903.385 7.78125C933.865 10.3698 964.276 13.6042 994.625 17.4896C1024.97 21.3698 1055.21 25.8906 1085.37 31.0573C1115.52 36.2188 1145.55 42.0208 1175.45 48.4583C1205.36 54.8958 1235.12 61.9635 1264.72 69.6615C1294.33 77.3594 1323.76 85.6875 1353.02 94.6354C1382.27 103.578 1411.32 113.146 1440.17 123.323V397.896C1425.88 392.24 1411.53 386.755 1397.11 381.438C1382.7 376.125 1368.23 370.979 1353.69 366C1339.16 361.026 1324.56 356.224 1309.92 351.589C1295.27 346.958 1280.57 342.5 1265.81 338.214C1251.06 333.932 1236.26 329.818 1221.41 325.88C1206.55 321.948 1191.66 318.182 1176.72 314.599C1161.78 311.01 1146.8 307.604 1131.78 304.37C1116.76 301.141 1101.71 298.083 1086.61 295.203C1071.52 292.328 1056.4 289.625 1041.24 287.104C1026.09 284.583 1010.91 282.24 995.698 280.073C980.484 277.911 965.25 275.927 949.995 274.12C934.74 272.318 919.464 270.688 904.167 269.245C888.87 267.797 873.563 266.531 858.234 265.448C842.911 264.365 827.573 263.458 812.229 262.734C796.88 262.01 781.526 261.469 766.167 261.109C750.807 260.745 735.448 260.568 720.083 260.568C704.719 260.568 689.359 260.745 674 261.109C658.641 261.469 643.286 262.01 627.943 262.734C612.594 263.458 597.26 264.365 581.932 265.448C566.609 266.536 551.297 267.797 536 269.245C520.708 270.688 505.432 272.318 490.172 274.12C474.917 275.927 459.682 277.911 444.474 280.073C429.26 282.24 414.078 284.583 398.922 287.104C383.771 289.625 368.646 292.328 353.552 295.203C338.464 298.083 323.406 301.141 308.385 304.37C293.365 307.604 278.385 311.016 263.448 314.599C248.51 318.182 233.615 321.948 218.766 325.88C203.911 329.818 189.109 333.932 174.359 338.214C159.604 342.5 144.901 346.958 130.255 351.589C115.604 356.224 101.01 361.026 86.474 366C71.9427 370.979 57.4635 376.125 43.0521 381.438C28.6354 386.755 14.2865 392.24 0 397.896V123.323Z" fill="white"/>
</svg>
