<svg width="114" height="368" viewBox="0 0 114 368" fill="none" xmlns="http://www.w3.org/2000/svg">
<g clip-path="url(#clip0_19413_8429)">
<mask id="path-1-inside-1_19413_8429" fill="white">
<path d="M0.209961 0.518555H113.508V367.072H0.209961V0.518555Z"/>
</mask>
<line x1="-57.2485" y1="43.4797" x2="128.865" y2="-43.3064" stroke="white" stroke-width="0.952088"/>
<line x1="-57.2485" y1="263.782" x2="128.865" y2="176.996" stroke="white" stroke-width="0.952088"/>
<line x1="-57.2485" y1="153.631" x2="128.865" y2="66.845" stroke="white" stroke-width="0.952088"/>
<line x1="-57.2485" y1="373.934" x2="128.865" y2="287.148" stroke="white" stroke-width="0.952088"/>
<line x1="-57.2485" y1="59.216" x2="128.865" y2="-27.5701" stroke="white" stroke-width="0.952088"/>
<line x1="-57.2485" y1="279.518" x2="128.865" y2="192.732" stroke="white" stroke-width="0.952088"/>
<line x1="-57.2485" y1="169.366" x2="128.865" y2="82.5803" stroke="white" stroke-width="0.952088"/>
<line x1="-57.2485" y1="389.669" x2="128.865" y2="302.883" stroke="white" stroke-width="0.952088"/>
<line x1="-57.2485" y1="74.9514" x2="128.865" y2="-11.8347" stroke="white" stroke-width="0.952088"/>
<line x1="-57.2485" y1="295.254" x2="128.865" y2="208.468" stroke="white" stroke-width="0.952088"/>
<line x1="-57.2485" y1="185.103" x2="128.865" y2="98.3166" stroke="white" stroke-width="0.952088"/>
<line x1="-57.2485" y1="405.405" x2="128.865" y2="318.619" stroke="white" stroke-width="0.952088"/>
<line x1="-57.2485" y1="90.6877" x2="128.865" y2="3.9016" stroke="white" stroke-width="0.952088"/>
<line x1="-57.2485" y1="310.989" x2="128.865" y2="224.203" stroke="white" stroke-width="0.952088"/>
<line x1="-57.2485" y1="200.839" x2="128.865" y2="114.053" stroke="white" stroke-width="0.952088"/>
<line x1="-57.2485" y1="421.141" x2="128.865" y2="334.355" stroke="white" stroke-width="0.952088"/>
<line x1="-57.2485" y1="106.423" x2="128.865" y2="19.637" stroke="white" stroke-width="0.952088"/>
<line x1="-57.2485" y1="326.726" x2="128.865" y2="239.94" stroke="white" stroke-width="0.952088"/>
<line x1="-57.2485" y1="216.574" x2="128.865" y2="129.788" stroke="white" stroke-width="0.952088"/>
<line x1="-57.2485" y1="436.877" x2="128.865" y2="350.091" stroke="white" stroke-width="0.952088"/>
<line x1="-57.2485" y1="122.159" x2="128.865" y2="35.3733" stroke="white" stroke-width="0.952088"/>
<line x1="-57.2485" y1="342.462" x2="128.865" y2="255.676" stroke="white" stroke-width="0.952088"/>
<line x1="-57.2485" y1="232.311" x2="128.865" y2="145.525" stroke="white" stroke-width="0.952088"/>
<line x1="-57.2485" y1="452.613" x2="128.865" y2="365.826" stroke="white" stroke-width="0.952088"/>
<line x1="-57.2485" y1="137.895" x2="128.865" y2="51.1086" stroke="white" stroke-width="0.952088"/>
<line x1="-57.2485" y1="358.197" x2="128.865" y2="271.411" stroke="white" stroke-width="0.952088"/>
<line x1="-57.2485" y1="248.046" x2="128.865" y2="161.26" stroke="white" stroke-width="0.952088"/>
</g>
<path d="M0.209961 0.518555V1.47064H113.508V0.518555V-0.433533H0.209961V0.518555ZM113.508 367.072V366.12H0.209961V367.072V368.024H113.508V367.072Z" fill="white" mask="url(#path-1-inside-1_19413_8429)"/>
<defs>
<clipPath id="clip0_19413_8429">
<path d="M0.209961 0.518555H113.508V367.072H0.209961V0.518555Z" fill="white"/>
</clipPath>
</defs>
</svg>
